<svg width="142" height="32" viewBox="0 0 142 32" fill="none" xmlns="http://www.w3.org/2000/svg">
<path d="M10.1687 6H24L13.8313 19H0L10.1687 6Z" fill="#155EEF"/>
<path d="M10.9935 19.9648L7 25H21.6894L32 12H21.1583L14.8412 19.9648H10.9935Z" fill="#312ECB"/>
<path d="M111.854 22.3177L107.005 9.84375H110.766L113.451 17.6159H113.633L116.193 9.84375H120L114.8 23.8585C114.362 25.0519 113.754 25.9432 112.976 26.5323C112.205 27.129 111.212 27.4273 109.996 27.4273H108.376V24.2437H109.792C110.653 24.2437 111.269 23.7981 111.639 22.9068L111.854 22.3177Z" fill="#101828"/>
<path d="M95.4418 15.9592C95.4191 14.7734 95.676 13.6933 96.2122 12.7189C96.7485 11.737 97.5151 10.9591 98.5121 10.385C99.5167 9.81099 100.65 9.52775 101.911 9.5353C103.603 9.5353 105.012 10.0074 106.137 10.9515C107.293 11.9032 107.95 13.1155 108.108 14.5883H104.46C104.279 14.0369 103.965 13.5989 103.52 13.2741C103.074 12.9493 102.545 12.7869 101.934 12.7869C101.073 12.7869 100.382 13.0853 99.8604 13.6819C99.3392 14.2711 99.0786 15.0302 99.0786 15.9592C99.0786 16.8882 99.343 17.6511 99.8717 18.2478C100.4 18.8445 101.095 19.1428 101.956 19.1428C102.545 19.1428 103.063 18.988 103.509 18.6783C103.962 18.3686 104.264 17.9646 104.415 17.466H108.086C107.882 18.9465 107.225 20.1398 106.114 21.0462C105.012 21.945 103.618 22.3944 101.934 22.3944C100.99 22.402 100.106 22.2396 99.2826 21.9073C98.4593 21.5674 97.7644 21.1066 97.1979 20.525C96.639 19.9359 96.2009 19.2486 95.8837 18.4631C95.574 17.67 95.4267 16.8354 95.4418 15.9592Z" fill="#101828"/>
<path d="M86.9832 22.0884H83.3804V9.84106H86.7679V11.178H86.9605C87.24 10.6946 87.6705 10.3018 88.2521 9.99967C88.8337 9.68999 89.4984 9.53516 90.2461 9.53516C91.5679 9.53516 92.6291 9.9468 93.4298 10.7701C94.2304 11.5707 94.6307 12.6206 94.6307 13.9197V22.0884H91.0392V15.03C91.0392 14.3805 90.8579 13.8593 90.4954 13.4665C90.1404 13.0738 89.6645 12.8774 89.0678 12.8774C88.456 12.8774 87.9538 13.1002 87.561 13.5458C87.1758 13.9915 86.9832 14.5504 86.9832 15.2226V22.0884Z" fill="#101828"/>
<path d="M69.0981 16.027C69.0981 14.0859 69.608 12.5262 70.6276 11.3479C71.6775 10.1394 73.022 9.53516 74.661 9.53516C75.4541 9.53516 76.149 9.70132 76.7456 10.0337C77.3499 10.3584 77.8069 10.7588 78.1165 11.2346H78.3091V9.84106H81.9006V22.0884H78.3318V20.6948H78.1392C78.0259 20.8761 77.8862 21.0498 77.72 21.216C77.5614 21.3822 77.3461 21.5635 77.0742 21.7598C76.8023 21.9487 76.4662 22.0997 76.0659 22.213C75.6656 22.3339 75.2275 22.3943 74.7516 22.3943C73.0673 22.3943 71.7002 21.8127 70.6503 20.6495C69.6155 19.5015 69.0981 17.9606 69.0981 16.027ZM72.735 15.9591C72.735 16.9032 72.9955 17.6698 73.5167 18.259C74.0379 18.8481 74.7214 19.1427 75.5674 19.1427C76.4058 19.1427 77.0818 18.8443 77.5954 18.2476C78.1165 17.651 78.3771 16.8881 78.3771 15.9591C78.3771 14.9998 78.1128 14.2332 77.584 13.6591C77.0629 13.0776 76.3831 12.7868 75.5447 12.7868C74.7139 12.7868 74.0379 13.0813 73.5167 13.6705C72.9955 14.2596 72.735 15.0225 72.735 15.9591Z" fill="#101828"/>
<path d="M60.6394 22.0884H57.0366V9.84106H60.4242V11.178H60.6168C60.8962 10.6946 61.3268 10.3018 61.9084 9.99967C62.49 9.68999 63.1546 9.53516 63.9024 9.53516C65.2242 9.53516 66.2854 9.9468 67.086 10.7701C67.8866 11.5707 68.2869 12.6206 68.2869 13.9197V22.0884H64.6955V15.03C64.6955 14.3805 64.5142 13.8593 64.1516 13.4665C63.7966 13.0738 63.3208 12.8774 62.7241 12.8774C62.1123 12.8774 61.61 13.1002 61.2173 13.5458C60.832 13.9915 60.6394 14.5504 60.6394 15.2226V22.0884Z" fill="#101828"/>
<path d="M52.2263 7.93912C51.8336 7.59168 51.6372 7.11961 51.6372 6.52292C51.6372 5.92622 51.8336 5.45415 52.2263 5.10671C52.6267 4.75172 53.1365 4.57422 53.7558 4.57422C54.3752 4.57422 54.885 4.75172 55.2853 5.10671C55.6706 5.4466 55.8632 5.92622 55.8632 6.54558C55.8632 7.14982 55.6706 7.62189 55.2853 7.96178C54.9001 8.30167 54.3903 8.47161 53.7558 8.47161C53.1365 8.47161 52.6267 8.29412 52.2263 7.93912ZM55.5686 22.0898H51.9658V9.8425H55.5686V22.0898Z" fill="#101828"/>
<path d="M43.994 12.6409H42V9.84248H44.096V9.04941C44.096 7.70496 44.519 6.64375 45.3649 5.86578C46.2184 5.08026 47.3551 4.6875 48.7751 4.6875H50.5425V7.65586H49.1943C48.658 7.65586 48.2502 7.7956 47.9707 8.07506C47.6913 8.34697 47.5515 8.72463 47.5515 9.20802V9.84248H50.6332V12.6409H47.5968V22.0898H43.994V12.6409Z" fill="#101828"/>
</svg>
